<?xml version="1.0" encoding="UTF-8" standalone="no"?>
<!DOCTYPE svg PUBLIC "-//W3C//DTD SVG 1.1//EN" "http://www.w3.org/Graphics/SVG/1.1/DTD/svg11.dtd">
<svg width="100%" height="100%" viewBox="0 0 1182 1182" version="1.1" xmlns="http://www.w3.org/2000/svg" xmlns:xlink="http://www.w3.org/1999/xlink" xml:space="preserve" xmlns:serif="http://www.serif.com/" style="fill-rule:evenodd;clip-rule:evenodd;stroke-linejoin:round;stroke-miterlimit:2;">
    <g id="icon_5_" transform="matrix(8.97632,0,0,8.97632,16.0653,16.0668)">
        <path d="M30.418,49.137C21.176,41.865 14.309,36.476 9.181,32.536C20.161,13.095 40.993,0 64.895,0C81.467,0 96.591,6.316 107.948,16.659C94.563,29.32 94.997,30.044 89.724,35.317C83.147,29.87 75.991,25.988 64.895,25.988C49.163,25.988 36.009,35.52 30.418,49.137ZM27.491,64C27.491,62.03 27.636,60.118 27.926,58.235C20.48,52.382 12.107,45.892 5.299,40.677C2.459,47.891 0.895,55.772 0.895,64C0.895,73.271 2.865,82.079 6.4,90.017C12.977,84.425 20.799,77.733 28.187,71.417C27.723,69.012 27.491,66.549 27.491,64ZM64.895,102.012C49.771,102.012 37.024,93.175 31.084,80.399C22.16,88.019 15.555,93.668 10.6,97.869C21.9,115.976 41.978,128 64.895,128C80.221,128 92.216,124.118 101.371,117.831C95.316,112.587 87.58,105.952 80.221,99.723C76.02,101.23 70.979,102.012 64.895,102.012ZM126.345,51.339L64.895,51.339L64.895,76.661C64.895,76.661 89.464,76.632 99.488,76.632C96.823,84.628 93.491,90.887 88.305,95.145C97.199,102.678 103.631,108.154 108.267,112.21C124.926,96.072 129.04,70.664 126.345,51.339Z" style="fill:rgb(16,87,157);"/>
    </g>
</svg>
