<?xml version="1.0" encoding="UTF-8" standalone="no"?>
<!DOCTYPE svg PUBLIC "-//W3C//DTD SVG 1.1//EN" "http://www.w3.org/Graphics/SVG/1.1/DTD/svg11.dtd">
<svg width="100%" height="100%" viewBox="0 0 1182 1182" version="1.1" xmlns="http://www.w3.org/2000/svg" xmlns:xlink="http://www.w3.org/1999/xlink" xml:space="preserve" xmlns:serif="http://www.serif.com/" style="fill-rule:evenodd;clip-rule:evenodd;stroke-linejoin:round;stroke-miterlimit:2;">
    <g id="Login" transform="matrix(65.8051,0,0,65.8051,16.4083,16.0668)">
        <path d="M13.25,17.46L4.25,17.46C4.237,17.46 4.223,17.46 4.21,17.46C1.9,17.46 -0,15.56 -0,13.25C-0,13.25 0,4.25 0,4.25C-0,4.237 -0,4.223 -0,4.21C-0,1.904 1.894,0.005 4.2,0L13.25,0C15.552,0.005 17.445,1.898 17.45,4.2L17.45,13.25C17.45,15.556 15.556,17.455 13.25,17.46ZM4.2,1.68C2.818,1.68 1.68,2.818 1.68,4.2L1.68,13.25C1.68,14.632 2.818,15.77 4.2,15.77L13.25,15.77C14.632,15.77 15.77,14.632 15.77,13.25L15.77,4.25C15.77,2.868 14.632,1.73 13.25,1.73L4.2,1.68Z" style="fill:rgb(16,87,157);fill-rule:nonzero;"/>
        <path d="M8.73,13.05C8.727,13.05 8.723,13.05 8.72,13.05C6.345,13.05 4.39,11.095 4.39,8.72C4.39,6.345 6.345,4.39 8.72,4.39C11.095,4.39 13.05,6.345 13.05,8.72C13.05,8.723 13.05,8.727 13.05,8.73C13.045,11.098 11.098,13.045 8.73,13.05ZM8.73,6.05C8.727,6.05 8.723,6.05 8.72,6.05C7.266,6.05 6.07,7.246 6.07,8.7C6.07,10.154 7.266,11.35 8.72,11.35C10.174,11.35 11.37,10.154 11.37,8.7C11.354,7.261 10.169,6.085 8.73,6.08L8.73,6.05Z" style="fill:rgb(16,87,157);fill-rule:nonzero;"/>
        <circle cx="13.11" cy="4.03" r="1.02" style="fill:rgb(16,87,157);"/>
    </g>
</svg>
