<?xml version="1.0" encoding="UTF-8" standalone="no"?>
<!DOCTYPE svg PUBLIC "-//W3C//DTD SVG 1.1//EN" "http://www.w3.org/Graphics/SVG/1.1/DTD/svg11.dtd">
<svg width="100%" height="100%" viewBox="0 0 1182 329" version="1.1" xmlns="http://www.w3.org/2000/svg" xmlns:xlink="http://www.w3.org/1999/xlink" xml:space="preserve" xmlns:serif="http://www.serif.com/" style="fill-rule:evenodd;clip-rule:evenodd;stroke-linejoin:round;stroke-miterlimit:2;">
    <g id="Temberger---Logo" serif:id="Temberger - Logo" transform="matrix(0.72604,0,0,0.723997,-65.3859,-285.962)">
        <g transform="matrix(3.24471,0,0,3.25386,-4550.54,-1655.63)">
            <path d="M1430.21,630.209L1912.28,630.209L1912.28,727.57L1458.56,727.57L1430.21,630.209ZM1539.03,635.331L1513.69,722.447L1907.71,722.447L1907.71,635.331L1539.03,635.331ZM1480.78,713.348L1489.69,713.348L1489.69,654.163L1511.95,654.163L1511.95,646.244L1458.61,646.244L1458.61,654.163L1480.78,654.163L1480.78,713.348ZM1923.93,630.355C1925.4,630.355 1926.72,630.686 1927.88,631.347C1929.04,632.008 1929.95,632.919 1930.6,634.082C1931.24,635.244 1931.57,636.56 1931.57,638.028C1931.57,639.497 1931.24,640.812 1930.6,641.975C1929.95,643.138 1929.04,644.049 1927.88,644.71C1926.72,645.371 1925.4,645.701 1923.93,645.701C1922.46,645.701 1921.15,645.371 1919.99,644.71C1918.82,644.049 1917.91,643.138 1917.25,641.975C1916.59,640.812 1916.26,639.497 1916.26,638.028C1916.26,636.56 1916.59,635.244 1917.25,634.082C1917.91,632.919 1918.82,632.008 1919.99,631.347C1921.15,630.686 1922.46,630.355 1923.93,630.355ZM1923.93,644.013C1925.69,644.013 1927.11,643.462 1928.17,642.36C1929.24,641.259 1929.77,639.815 1929.77,638.028C1929.77,636.242 1929.24,634.798 1928.17,633.696C1927.11,632.595 1925.69,632.044 1923.93,632.044C1922.14,632.044 1920.73,632.595 1919.67,633.696C1918.62,634.798 1918.1,636.242 1918.1,638.028C1918.1,639.815 1918.62,641.259 1919.67,642.36C1920.73,643.462 1922.14,644.013 1923.93,644.013ZM1927.31,636.56C1927.31,637.098 1927.17,637.569 1926.91,637.973C1926.64,638.377 1926.27,638.677 1925.8,638.873L1927.75,641.883L1924.96,641.883L1923.34,639.13L1923.09,639.13L1923.09,641.883L1920.78,641.883L1920.78,633.99L1924.48,633.99C1925.34,633.99 1926.02,634.229 1926.54,634.706C1927.05,635.183 1927.31,635.801 1927.31,636.56ZM1923.09,637.257L1924.34,637.257C1924.53,637.257 1924.7,637.202 1924.83,637.092C1924.97,636.982 1925.03,636.829 1925.03,636.633C1925.03,636.438 1924.97,636.291 1924.83,636.193C1924.7,636.095 1924.53,636.046 1924.34,636.046L1923.09,636.046L1923.09,637.257Z" style="fill:rgb(10,85,156);"/>
        </g>
        <g transform="matrix(1.75432,0,0,1.07868,-390.133,-34.8782)">
            <path d="M552.149,492.412L552.149,512.103L531.691,512.103L531.691,603.617L517.311,603.617L517.311,512.103L496.761,512.103L496.761,492.412L552.149,492.412ZM609.993,555.031L576.779,555.031L576.779,583.625L614.632,583.625L614.632,603.617L562.816,603.617L562.816,492.412L612.962,492.412L612.962,512.103L576.779,512.103L576.779,535.717L609.993,535.717L609.993,555.031ZM640.747,603.617L627.433,603.617L627.433,492.412L648.215,492.412L660.647,579.852L672.986,492.412L693.536,492.412L693.536,603.617L680.223,603.617L680.223,528.399C680.223,526.237 680.239,523.206 680.269,519.308C680.3,515.41 680.316,512.405 680.316,510.293L667.373,603.617L653.503,603.617L640.654,510.293C640.654,512.405 640.669,515.41 640.7,519.308C640.731,523.206 640.747,526.237 640.747,528.399L640.747,603.617ZM739.923,603.617L708.936,603.617L708.936,492.412L742.15,492.412C750.53,492.613 756.468,496.562 759.963,504.257C762.066,508.985 763.117,514.643 763.117,521.232C763.117,528.022 762.066,533.479 759.963,537.603C758.788,539.917 757.056,542.03 754.767,543.941C758.262,546.003 760.898,549.272 762.676,553.749C764.455,558.225 765.344,563.657 765.344,570.045C765.344,576.633 764.323,582.543 762.282,587.774C760.983,591.244 759.36,594.162 757.411,596.526C755.216,599.242 752.626,601.102 749.641,602.108C746.657,603.114 743.418,603.617 739.923,603.617ZM746.696,533.454C748.551,531.643 749.479,528.399 749.479,523.722C749.479,518.541 748.242,515.121 745.768,513.461C743.634,512.304 740.913,511.726 737.604,511.726L722.574,511.726L722.574,536.245L739.366,536.245C742.366,536.245 744.809,535.315 746.696,533.454ZM739.598,554.654L722.574,554.654L722.574,584.304L739.366,584.304C742.366,584.304 744.701,583.65 746.371,582.342C749.402,579.928 750.917,575.301 750.917,568.46C750.917,562.676 749.448,558.703 746.51,556.54C744.871,555.333 742.567,554.704 739.598,554.654ZM826.806,555.031L793.592,555.031L793.592,583.625L831.445,583.625L831.445,603.617L779.63,603.617L779.63,492.412L829.775,492.412L829.775,512.103L793.592,512.103L793.592,535.717L826.806,535.717L826.806,555.031ZM873.518,560.01L858.766,560.01L858.766,603.617L844.803,603.617L844.803,492.412L878.342,492.412C883.136,492.563 886.823,493.519 889.406,495.279C891.988,497.04 894.176,499.63 895.97,503.05C897.454,505.867 898.629,508.985 899.495,512.405C900.361,515.825 900.794,519.723 900.794,524.099C900.794,529.38 899.974,534.573 898.335,539.678C896.696,544.783 893.99,548.392 890.217,550.504C893.372,552.567 895.606,555.496 896.921,559.294C898.235,563.091 898.892,568.888 898.892,576.684L898.892,584.153C898.892,589.233 899.016,592.678 899.263,594.489C899.634,597.355 900.5,599.468 901.861,600.826L901.861,603.617L886.135,603.617C885.702,601.153 885.393,599.166 885.208,597.657C884.836,594.539 884.635,591.345 884.604,588.076L884.512,577.74C884.45,570.648 883.654,565.92 882.123,563.556C880.592,561.192 877.724,560.01 873.518,560.01ZM882.192,539.791C885.037,537.679 886.46,533.504 886.46,527.268C886.46,520.528 885.084,516.001 882.331,513.688C880.785,512.38 878.466,511.726 875.373,511.726L858.766,511.726L858.766,541.602L874.956,541.602C878.172,541.602 880.584,540.998 882.192,539.791ZM956.922,600.901C953.149,604.674 948.51,606.56 943.006,606.56C933.944,606.56 926.522,601.455 920.739,591.244C914.709,580.984 911.693,566.951 911.693,549.146C911.693,531.14 914.74,516.705 920.832,505.841C926.924,494.977 934.98,489.545 945,489.545C953.69,489.545 960.672,493.129 965.945,500.296C971.217,507.463 974.24,516.404 975.013,527.117L960.958,527.117C959.875,519.522 957.231,514.216 953.025,511.198C950.675,509.538 948.062,508.708 945.186,508.708C939.681,508.708 935.158,512.091 931.617,518.856C928.076,525.62 926.306,535.793 926.306,549.373C926.306,563.053 928.223,572.735 932.058,578.419C935.893,584.102 940.253,586.944 945.139,586.944C949.933,586.944 953.86,584.693 956.922,580.192C959.984,575.69 961.87,569.793 962.581,562.5L946.763,562.5L946.763,543.941L975.245,543.941L975.245,603.617L965.782,603.617L964.344,589.736C961.592,595.017 959.118,598.739 956.922,600.901ZM1038.38,555.031L1005.16,555.031L1005.16,583.625L1043.02,583.625L1043.02,603.617L991.201,603.617L991.201,492.412L1041.35,492.412L1041.35,512.103L1005.16,512.103L1005.16,535.717L1038.38,535.717L1038.38,555.031ZM1085.09,560.01L1070.34,560.01L1070.34,603.617L1056.38,603.617L1056.38,492.412L1089.91,492.412C1094.71,492.563 1098.39,493.519 1100.98,495.279C1103.56,497.04 1105.75,499.63 1107.54,503.05C1109.03,505.867 1110.2,508.985 1111.07,512.405C1111.93,515.825 1112.37,519.723 1112.37,524.099C1112.37,529.38 1111.55,534.573 1109.91,539.678C1108.27,544.783 1105.56,548.392 1101.79,550.504C1104.94,552.567 1107.18,555.496 1108.49,559.294C1109.81,563.091 1110.46,568.888 1110.46,576.684L1110.46,584.153C1110.46,589.233 1110.59,592.678 1110.84,594.489C1111.21,597.355 1112.07,599.468 1113.43,600.826L1113.43,603.617L1097.71,603.617C1097.27,601.153 1096.96,599.166 1096.78,597.657C1096.41,594.539 1096.21,591.345 1096.18,588.076L1096.08,577.74C1096.02,570.648 1095.23,565.92 1093.69,563.556C1092.16,561.192 1089.3,560.01 1085.09,560.01ZM1093.76,539.791C1096.61,537.679 1098.03,533.504 1098.03,527.268C1098.03,520.528 1096.65,516.001 1093.9,513.688C1092.36,512.38 1090.04,511.726 1086.94,511.726L1070.34,511.726L1070.34,541.602L1086.53,541.602C1089.74,541.602 1092.16,540.998 1093.76,539.791ZM344.372,744.798L344.372,818.575L335.605,818.575L335.605,744.798L344.372,744.798ZM364.21,744.798L364.21,776.168L364.405,776.168C366.981,770.922 370.087,768.299 373.724,768.299C376.95,768.299 379.547,770.024 381.517,773.474C383.487,776.925 384.472,781.431 384.472,786.994L384.472,818.575L376.517,818.575L376.517,789.476C376.517,786.167 376.035,783.535 375.072,781.581C374.108,779.627 372.793,778.65 371.126,778.65C369.914,778.65 368.772,779.213 367.701,780.34C366.629,781.467 365.465,783.333 364.21,785.938L364.21,818.575L356.222,818.575L356.222,744.798L364.21,744.798ZM412.201,768.299C413.261,768.299 414.306,768.686 415.334,769.461C416.362,770.235 417.558,771.538 418.922,773.369L416.065,784.723C413.748,781.907 411.887,780.498 410.48,780.498C409.246,780.498 408.028,781.246 406.826,782.743C405.625,784.239 404.662,786.22 403.936,788.684C403.211,791.149 402.849,793.613 402.849,796.078L402.849,818.575L394.861,818.575L394.861,769.25L402.849,769.25L402.849,781.819L402.979,781.819C404.429,777.066 405.89,773.624 407.362,771.494C408.834,769.364 410.447,768.299 412.201,768.299ZM464.995,744.798C469.238,744.798 472.685,746.796 475.337,750.792C477.989,754.788 479.315,759.937 479.315,766.239C479.315,772.612 477.972,777.77 475.288,781.713C472.604,785.656 469.064,787.628 464.67,787.628L456.227,787.628L456.227,818.575L447.46,818.575L447.46,744.798L464.995,744.798ZM462.819,776.485C465.157,776.485 466.981,775.613 468.29,773.871C469.6,772.128 470.255,769.549 470.255,766.134C470.255,759.339 467.571,755.941 462.202,755.941L456.227,755.941L456.227,776.485L462.819,776.485ZM498.86,768.299C502.757,768.299 505.733,769.646 507.79,772.339C509.846,775.032 510.875,778.791 510.875,783.614L510.875,807.749C510.875,809.615 511.34,810.548 512.271,810.548C512.661,810.548 513.207,810.275 513.911,809.729C514.614,809.184 515.204,808.559 515.68,807.854L515.68,815.354C512.888,818.135 510.333,819.526 508.017,819.526C506.588,819.526 505.49,819.138 504.721,818.364C503.953,817.589 503.417,816.216 503.114,814.245C500.062,817.765 496.998,819.526 493.924,819.526C491.738,819.526 489.86,818.329 488.291,815.935C486.721,813.54 485.936,810.671 485.936,807.326C485.936,803.066 486.716,799.704 488.274,797.239C489.833,794.775 492.561,792.627 496.457,790.796L502.919,787.733L502.919,785.463C502.919,780.639 501.122,778.227 497.529,778.227C495.689,778.227 493.859,778.914 492.041,780.287C490.223,781.66 488.567,783.685 487.073,786.36L487.073,774.689C490.385,770.429 494.314,768.299 498.86,768.299ZM493.989,805.372C493.989,807.168 494.341,808.611 495.045,809.703C495.748,810.794 496.62,811.34 497.659,811.34C499.412,811.34 501.166,810.037 502.919,807.432L502.919,794.44C500.689,795.673 498.941,796.835 497.675,797.926C496.408,799.017 495.478,800.126 494.882,801.253C494.287,802.38 493.989,803.753 493.989,805.372ZM540.064,768.299C541.125,768.299 542.17,768.686 543.198,769.461C544.226,770.235 545.422,771.538 546.786,773.369L543.928,784.723C541.612,781.907 539.75,780.498 538.343,780.498C537.109,780.498 535.892,781.246 534.69,782.743C533.489,784.239 532.525,786.22 531.8,788.684C531.075,791.149 530.712,793.613 530.712,796.078L530.712,818.575L522.724,818.575L522.724,769.25L530.712,769.25L530.712,781.819L530.842,781.819C532.293,777.066 533.754,773.624 535.226,771.494C536.698,769.364 538.311,768.299 540.064,768.299ZM561.493,756.152L562.142,756.152L562.142,769.25L572.533,769.25L572.533,779.072L562.142,779.072L562.142,801.834C562.142,804.052 562.554,805.848 563.376,807.221C564.199,808.594 565.325,809.28 566.753,809.28C568.615,809.28 570.758,808.189 573.183,806.006L573.183,816.41C570.304,818.487 567.598,819.526 565.065,819.526C561.645,819.526 558.976,818.012 557.061,814.984C555.145,811.956 554.187,807.854 554.187,802.679L554.187,779.072L549.446,779.072L549.446,776.96L561.493,756.152ZM597.956,768.299C601.204,768.299 603.796,770.033 605.733,773.501C607.671,776.969 608.64,781.537 608.64,787.205L608.64,818.575L600.684,818.575L600.684,788.526C600.684,785.322 600.213,782.787 599.271,780.921C598.33,779.055 597.047,778.122 595.424,778.122C594.19,778.122 593.031,778.712 591.949,779.891C590.867,781.07 589.676,783.033 588.377,785.779L588.377,818.575L580.389,818.575L580.389,769.25L588.377,769.25L588.377,776.168C589.849,773.351 591.359,771.336 592.907,770.121C594.455,768.906 596.138,768.299 597.956,768.299ZM632.601,768.299C637.061,768.299 640.589,770.623 643.187,775.27C645.785,779.917 647.084,786.343 647.084,794.546L647.084,796.5L625.62,796.5C625.944,800.901 626.956,804.29 628.656,806.666C630.355,809.043 632.688,810.231 635.654,810.231C637.559,810.231 639.393,809.694 641.158,808.62C642.922,807.546 644.746,805.918 646.629,803.735L646.629,813.4C643.079,817.484 638.771,819.526 633.705,819.526C628.921,819.526 625.014,817.184 621.983,812.502C618.952,807.819 617.437,801.588 617.437,793.807C617.437,786.308 618.839,780.181 621.642,775.428C624.445,770.675 628.098,768.299 632.601,768.299ZM639.583,788.631C639.366,785.04 638.695,782.232 637.569,780.208C636.444,778.183 634.896,777.171 632.926,777.171C630.913,777.171 629.294,778.139 628.071,780.076C626.848,782.012 626.074,784.864 625.75,788.631L639.583,788.631ZM673.351,768.299C674.411,768.299 675.456,768.686 676.484,769.461C677.513,770.235 678.709,771.538 680.072,773.369L677.215,784.723C674.899,781.907 673.037,780.498 671.63,780.498C670.396,780.498 669.178,781.246 667.977,782.743C666.775,784.239 665.812,786.22 665.087,788.684C664.361,791.149 663.999,793.613 663.999,796.078L663.999,818.575L656.011,818.575L656.011,769.25L663.999,769.25L663.999,781.819L664.129,781.819C665.579,777.066 667.04,773.624 668.512,771.494C669.984,769.364 671.597,768.299 673.351,768.299ZM720.365,743.847C721.296,743.847 722.254,743.988 723.239,744.27C724.223,744.552 725.019,744.921 725.625,745.379L725.625,755.941C724.521,755.448 723.32,755.202 722.021,755.202C720.094,755.202 718.66,756.012 717.718,757.631C716.777,759.251 716.306,761.944 716.306,765.711L716.306,769.25L721.501,769.25L721.501,779.072L716.306,779.072L716.306,818.575L708.318,818.575L708.318,779.072L703.999,779.072L703.999,769.25L708.318,769.25L708.318,765.553C708.318,758.899 709.416,753.617 711.614,749.709C713.811,745.801 716.728,743.847 720.365,743.847ZM736.111,769.25L736.111,799.774C736.111,802.978 736.603,805.416 737.588,807.089C738.573,808.761 739.878,809.597 741.501,809.597C742.843,809.597 744.132,808.928 745.365,807.59C746.599,806.253 747.595,804.369 748.353,801.94L748.353,769.25L756.341,769.25L756.341,818.575L748.353,818.575L748.353,811.868C745.474,816.973 742.356,819.526 739.001,819.526C735.754,819.526 733.134,817.801 731.143,814.35C729.151,810.9 728.155,806.393 728.155,800.831L728.155,769.25L736.111,769.25ZM735.981,748.812C737.02,748.812 737.902,749.401 738.628,750.581C739.353,751.76 739.715,753.195 739.715,754.885C739.715,756.54 739.353,757.974 738.628,759.189C737.902,760.404 737.02,761.011 735.981,761.011C734.964,761.011 734.081,760.404 733.335,759.189C732.588,757.974 732.214,756.54 732.214,754.885C732.214,753.195 732.582,751.76 733.318,750.581C734.054,749.401 734.942,748.812 735.981,748.812ZM748.97,748.812C750.009,748.812 750.896,749.41 751.633,750.607C752.369,751.804 752.737,753.23 752.737,754.885C752.737,756.575 752.363,758.018 751.616,759.215C750.869,760.413 749.987,761.011 748.97,761.011C747.974,761.011 747.103,760.43 746.356,759.268C745.609,758.106 745.236,756.645 745.236,754.885C745.236,753.195 745.598,751.76 746.323,750.581C747.049,749.401 747.931,748.812 748.97,748.812ZM784.329,768.299C785.39,768.299 786.434,768.686 787.463,769.461C788.491,770.235 789.687,771.538 791.051,773.369L788.193,784.723C785.877,781.907 784.015,780.498 782.608,780.498C781.374,780.498 780.156,781.246 778.955,782.743C777.754,784.239 776.79,786.22 776.065,788.684C775.34,791.149 774.977,793.613 774.977,796.078L774.977,818.575L766.989,818.575L766.989,769.25L774.977,769.25L774.977,781.819L775.107,781.819C776.557,777.066 778.019,773.624 779.491,771.494C780.963,769.364 782.576,768.299 784.329,768.299ZM832.739,743.847C837.156,743.847 841.409,745.643 845.501,749.234L845.501,761.909C840.803,757.297 836.636,754.991 832.999,754.991C830.791,754.991 829.065,755.686 827.82,757.077C826.575,758.467 825.953,760.324 825.953,762.648C825.953,765.43 827.111,768 829.427,770.359C830.077,771.063 832.577,773.034 836.928,776.273C840.652,779.125 843.336,782.294 844.981,785.779C846.626,789.265 847.449,793.455 847.449,798.348C847.449,804.686 846.047,809.8 843.244,813.69C840.441,817.581 836.809,819.526 832.35,819.526C829.449,819.526 826.954,819.006 824.865,817.968C822.776,816.929 820.433,815.142 817.835,812.607L817.835,798.56C822.684,805.108 827.252,808.383 831.538,808.383C833.681,808.383 835.413,807.626 836.733,806.112C838.054,804.598 838.714,802.591 838.714,800.091C838.714,796.676 837.567,793.895 835.272,791.747C833.367,790.057 830.91,788.033 827.901,785.674C824.329,783.033 821.661,779.953 819.897,776.432C818.132,772.911 817.25,768.827 817.25,764.18C817.25,757.983 818.668,753.045 821.504,749.366C824.34,745.687 828.085,743.847 832.739,743.847ZM867.676,768.299C871.573,768.299 874.55,769.646 876.606,772.339C878.663,775.032 879.691,778.791 879.691,783.614L879.691,807.749C879.691,809.615 880.156,810.548 881.087,810.548C881.477,810.548 882.024,810.275 882.727,809.729C883.431,809.184 884.021,808.559 884.497,807.854L884.497,815.354C881.704,818.135 879.15,819.526 876.834,819.526C875.405,819.526 874.306,819.138 873.538,818.364C872.769,817.589 872.233,816.216 871.93,814.245C868.878,817.765 865.815,819.526 862.741,819.526C860.554,819.526 858.676,818.329 857.107,815.935C855.537,813.54 854.753,810.671 854.753,807.326C854.753,803.066 855.532,799.704 857.091,797.239C858.649,794.775 861.377,792.627 865.274,790.796L871.735,787.733L871.735,785.463C871.735,780.639 869.939,778.227 866.345,778.227C864.505,778.227 862.676,778.914 860.857,780.287C859.039,781.66 857.383,783.685 855.889,786.36L855.889,774.689C859.201,770.429 863.13,768.299 867.676,768.299ZM862.806,805.372C862.806,807.168 863.157,808.611 863.861,809.703C864.565,810.794 865.436,811.34 866.475,811.34C868.228,811.34 869.982,810.037 871.735,807.432L871.735,794.44C869.506,795.673 867.758,796.835 866.491,797.926C865.225,799.017 864.294,800.126 863.699,801.253C863.103,802.38 862.806,803.753 862.806,805.372ZM899.236,769.25L899.236,799.774C899.236,802.978 899.729,805.416 900.714,807.089C901.699,808.761 903.003,809.597 904.627,809.597C905.969,809.597 907.257,808.928 908.491,807.59C909.725,806.253 910.721,804.369 911.478,801.94L911.478,769.25L919.466,769.25L919.466,818.575L911.478,818.575L911.478,811.868C908.599,816.973 905.482,819.526 902.126,819.526C898.879,819.526 896.26,817.801 894.268,814.35C892.277,810.9 891.281,806.393 891.281,800.831L891.281,769.25L899.236,769.25ZM938.103,744.798L938.103,772.418C940.462,769.672 943.136,768.299 946.123,768.299C948.786,768.299 951.205,769.364 953.381,771.494C955.556,773.624 957.245,776.617 958.446,780.472C959.648,784.327 960.248,788.631 960.248,793.384C960.248,801.482 958.766,807.863 955.8,812.528C952.834,817.193 948.775,819.526 943.623,819.526C938.99,819.526 934.487,818.135 930.115,815.354L930.115,744.798L938.103,744.798ZM938.103,808.277C939.813,809.228 941.804,809.703 944.077,809.703C946.524,809.703 948.467,808.251 949.906,805.346C951.346,802.441 952.066,798.419 952.066,793.279C952.066,788.631 951.34,784.926 949.89,782.162C948.44,779.398 946.524,778.016 944.142,778.016C943.038,778.016 942.021,778.351 941.09,779.02C940.159,779.689 939.163,780.727 938.103,782.135L938.103,808.277ZM982.846,768.299C987.306,768.299 990.834,770.623 993.432,775.27C996.03,779.917 997.329,786.343 997.329,794.546L997.329,796.5L975.865,796.5C976.19,800.901 977.202,804.29 978.901,806.666C980.6,809.043 982.933,810.231 985.899,810.231C987.804,810.231 989.638,809.694 991.403,808.62C993.167,807.546 994.991,805.918 996.874,803.735L996.874,813.4C993.324,817.484 989.016,819.526 983.95,819.526C979.166,819.526 975.259,817.184 972.228,812.502C969.197,807.819 967.682,801.588 967.682,793.807C967.682,786.308 969.084,780.181 971.887,775.428C974.69,770.675 978.343,768.299 982.846,768.299ZM989.828,788.631C989.611,785.04 988.94,782.232 987.814,780.208C986.689,778.183 985.141,777.171 983.171,777.171C981.158,777.171 979.54,778.139 978.316,780.076C977.093,782.012 976.319,784.864 975.995,788.631L989.828,788.631ZM1023.6,768.299C1024.66,768.299 1025.7,768.686 1026.73,769.461C1027.76,770.235 1028.95,771.538 1030.32,773.369L1027.46,784.723C1025.14,781.907 1023.28,780.498 1021.88,780.498C1020.64,780.498 1019.42,781.246 1018.22,782.743C1017.02,784.239 1016.06,786.22 1015.33,788.684C1014.61,791.149 1014.24,793.613 1014.24,796.078L1014.24,818.575L1006.26,818.575L1006.26,769.25L1014.24,769.25L1014.24,781.819L1014.37,781.819C1015.82,777.066 1017.28,773.624 1018.76,771.494C1020.23,769.364 1021.84,768.299 1023.6,768.299ZM1044.7,744.798L1044.7,818.575L1036.71,818.575L1036.71,744.798L1044.7,744.798ZM1066.72,769.25L1054.41,793.595L1068.24,818.575L1058.11,818.575L1044.83,793.595L1057.33,769.25L1066.72,769.25ZM1087.4,768.299C1091.86,768.299 1095.39,770.623 1097.98,775.27C1100.58,779.917 1101.88,786.343 1101.88,794.546L1101.88,796.5L1080.42,796.5C1080.74,800.901 1081.75,804.29 1083.45,806.666C1085.15,809.043 1087.48,810.231 1090.45,810.231C1092.36,810.231 1094.19,809.694 1095.95,808.62C1097.72,807.546 1099.54,805.918 1101.43,803.735L1101.43,813.4C1097.88,817.484 1093.57,819.526 1088.5,819.526C1083.72,819.526 1079.81,817.184 1076.78,812.502C1073.75,807.819 1072.23,801.588 1072.23,793.807C1072.23,786.308 1073.63,780.181 1076.44,775.428C1079.24,770.675 1082.89,768.299 1087.4,768.299ZM1094.38,788.631C1094.16,785.04 1093.49,782.232 1092.37,780.208C1091.24,778.183 1089.69,777.171 1087.72,777.171C1085.71,777.171 1084.09,778.139 1082.87,780.076C1081.64,782.012 1080.87,784.864 1080.55,788.631L1094.38,788.631ZM1115.06,746.435C1116.3,746.435 1117.36,747.157 1118.24,748.6C1119.13,750.044 1119.58,751.769 1119.58,753.776C1119.58,755.712 1119.14,757.429 1118.26,758.925C1117.38,760.421 1116.32,761.169 1115.06,761.169C1113.85,761.169 1112.79,760.421 1111.89,758.925C1111,757.429 1110.55,755.712 1110.55,753.776C1110.55,751.734 1111,750 1111.91,748.574C1112.82,747.148 1113.87,746.435 1115.06,746.435ZM1119.06,769.25L1119.06,818.575L1111.07,818.575L1111.07,769.25L1119.06,769.25ZM1138.28,756.152L1138.92,756.152L1138.92,769.25L1149.32,769.25L1149.32,779.072L1138.92,779.072L1138.92,801.834C1138.92,804.052 1139.34,805.848 1140.16,807.221C1140.98,808.594 1142.11,809.28 1143.54,809.28C1145.4,809.28 1147.54,808.189 1149.97,806.006L1149.97,816.41C1147.09,818.487 1144.38,819.526 1141.85,819.526C1138.43,819.526 1135.76,818.012 1133.84,814.984C1131.93,811.956 1130.97,807.854 1130.97,802.679L1130.97,779.072L1126.23,779.072L1126.23,776.96L1138.28,756.152Z"/>
        </g>
    </g>
</svg>
