<?xml version="1.0" encoding="UTF-8" standalone="no"?>
<!DOCTYPE svg PUBLIC "-//W3C//DTD SVG 1.1//EN" "http://www.w3.org/Graphics/SVG/1.1/DTD/svg11.dtd">
<svg width="100%" height="100%" viewBox="0 0 1182 1182" version="1.1" xmlns="http://www.w3.org/2000/svg" xmlns:xlink="http://www.w3.org/1999/xlink" xml:space="preserve" xmlns:serif="http://www.serif.com/" style="fill-rule:evenodd;clip-rule:evenodd;stroke-linejoin:round;stroke-miterlimit:2;">
    <g>
        <g transform="matrix(1.08009,0,0,0.986397,-47.4738,16.0668)">
            <path d="M1114.63,582.166C1114.63,903.471 879.8,1164.33 590.551,1164.33C502.255,1164.33 415.39,1139.55 338.02,1092.29L66.469,1181.1L138.679,877.056C91.398,787.656 66.469,685.851 66.469,582.166C66.469,260.86 301.303,0 590.551,0C879.8,0 1114.63,260.86 1114.63,582.166ZM979.614,582.166C979.614,343.038 805.82,147.844 590.551,147.844C375.282,147.844 201.489,343.038 201.489,582.166C201.489,659.797 220.12,736.03 255.52,802.965L283.308,855.505L257.46,964.338L354.008,932.761L403.799,963.176C461.018,998.128 525.251,1016.49 590.551,1016.49C805.82,1016.49 979.614,821.293 979.614,582.166Z" style="fill:rgb(16,87,157);"/>
        </g>
        <g transform="matrix(57.5443,0,0,57.5443,100.537,60.3975)">
            <path d="M10.58,10.13C10.424,10.287 10.212,10.376 9.99,10.376C9.768,10.376 9.556,10.287 9.4,10.13L7.55,8.28C7.393,8.124 7.304,7.912 7.304,7.69C7.304,7.468 7.393,7.256 7.55,7.1C7.828,6.837 7.859,6.399 7.62,6.1L6.75,4.92C6.619,4.754 6.419,4.656 6.208,4.656C6.039,4.656 5.876,4.718 5.75,4.83C4.58,6 4.24,8.1 5.36,9.22L8.46,12.32C9.58,13.43 11.73,13.1 12.84,11.98C12.975,11.85 13.051,11.67 13.051,11.483C13.051,11.259 12.943,11.049 12.76,10.92L11.55,10.05C11.251,9.84 10.841,9.874 10.58,10.13Z" style="fill:rgb(16,87,157);fill-rule:nonzero;"/>
        </g>
    </g>
</svg>
